<svg xmlns="http://www.w3.org/2000/svg" viewBox="0 0 243.38 127.89"><defs><style>.cls-1{fill:#cd9f52;}</style></defs><g id="Layer_2" data-name="Layer 2"><g id="_ëîé_1" data-name="—ëîé_1"><path class="cls-1" d="M109.64,59.49c-.34-3.35-.78-6.7-1.29-10s-1.09-6.64-1.77-9.94c-.34-1.64-1.85-8.19-2.24-9.83-.79-3.26-1.63-6.52-2.46-9.78a.57.57,0,0,1,.41-.68.56.56,0,0,1,.67.36c1.12,3.2,2,6.46,2.84,9.75.39,1.65.75,3.3,1.08,5s.61,3.33.88,5c.54,3.34,1,6.69,1.33,10.06s.56,6.74.7,10.11a.08.08,0,0,1-.08.08A.07.07,0,0,1,109.64,59.49Z"/><path class="cls-1" d="M119.71,52.43c.12-2.21.31-4.41.6-6.61s.67-4.38,1.12-6.55a59.9,59.9,0,0,1,1.64-6.46,55.76,55.76,0,0,1,2.39-6.22.57.57,0,0,1,.75-.27.57.57,0,0,1,.3.68c-.66,2.1-1.37,4.17-2,6.26s-1.32,4.18-1.9,6.29-1.09,4.25-1.55,6.4-.87,4.31-1.19,6.5a.08.08,0,0,1-.09.06A.09.09,0,0,1,119.71,52.43Z"/><path class="cls-1" d="M96.83,52.83A88.72,88.72,0,0,0,92,42.63c-.91-1.64-1.9-3.23-2.85-4.84s-2-3.19-2.92-4.8a.56.56,0,0,1,.2-.77.55.55,0,0,1,.72.12A40.91,40.91,0,0,1,90.47,37a47.77,47.77,0,0,1,2.63,5.07A64.55,64.55,0,0,1,97,52.78a.09.09,0,0,1,0,.1A.07.07,0,0,1,96.83,52.83Z"/><path class="cls-1" d="M126.76,58.09A62.89,62.89,0,0,1,134.51,42c.84-1.25,1.7-2.47,2.62-3.65S139,36.05,140,35a49.26,49.26,0,0,1,6.64-6,.56.56,0,0,1,.72.86c-2.17,2-4.27,4-6.26,6.19a83.06,83.06,0,0,0-5.65,6.75,67.41,67.41,0,0,0-4.77,7.42,69.86,69.86,0,0,0-3.82,8,.07.07,0,0,1-.14,0Z"/><path class="cls-1" d="M94.67,65.42a64.86,64.86,0,0,0-5.29-6.72,65.65,65.65,0,0,0-6.08-6,78,78,0,0,0-6.79-5.09c-2.33-1.6-4.77-3-7.25-4.42a.56.56,0,0,1-.22-.76.57.57,0,0,1,.72-.25,47.9,47.9,0,0,1,7.59,4.18,50.6,50.6,0,0,1,6.75,5.45A59.67,59.67,0,0,1,90,58.22a62,62,0,0,1,4.85,7.12.07.07,0,0,1,0,.1A.08.08,0,0,1,94.67,65.42Z"/><polygon class="cls-1" points="156.87 16.72 155.71 21.34 158.87 24.91 154.11 25.25 151.69 29.35 149.9 24.93 145.25 23.89 148.91 20.83 148.45 16.09 152.49 18.61 156.87 16.72"/><polygon class="cls-1" points="107.14 16.31 100.93 14.41 95.85 18.43 95.74 11.95 90.34 8.35 96.48 6.25 98.22 0 102.12 5.19 108.61 4.92 104.88 10.23 107.14 16.31"/><polygon class="cls-1" points="56.44 32.77 61.24 34.07 65.03 30.86 65.28 35.82 69.51 38.44 64.86 40.2 63.69 45.04 60.57 41.16 55.61 41.54 58.33 37.38 56.44 32.77"/><path class="cls-1" d="M149,45.69a3.1,3.1,0,1,1,3.1,3.1A3.09,3.09,0,0,1,149,45.69Z"/><path class="cls-1" d="M71.29,58.11a2.16,2.16,0,1,1,2.16,2.16A2.16,2.16,0,0,1,71.29,58.11Z"/><path class="cls-1" d="M0,94.55a3.1,3.1,0,1,1,3.1,3.1A3.1,3.1,0,0,1,0,94.55Z"/><path class="cls-1" d="M178.39,44.36a2.16,2.16,0,1,1,2.16,2.16A2.16,2.16,0,0,1,178.39,44.36Z"/><path class="cls-1" d="M131.64,97.4a2.16,2.16,0,1,1,2.16,2.16A2.16,2.16,0,0,1,131.64,97.4Z"/><circle class="cls-1" cx="8.4" cy="51.3" r="2.16"/><path class="cls-1" d="M239.07,99.73a2.16,2.16,0,1,1,2.15,2.15A2.15,2.15,0,0,1,239.07,99.73Z"/><circle class="cls-1" cx="157.45" cy="110.86" r="2.16"/><path class="cls-1" d="M212.37,108.84a2.16,2.16,0,1,1,2.16,2.16A2.16,2.16,0,0,1,212.37,108.84Z"/><circle class="cls-1" cx="23.32" cy="107.68" r="2.16"/><circle class="cls-1" cx="231.63" cy="51.66" r="2.16"/><path class="cls-1" d="M46.43,55.56a3.1,3.1,0,1,1,3.1,3.1A3.1,3.1,0,0,1,46.43,55.56Z"/><path class="cls-1" d="M98,105a3.1,3.1,0,1,1,3.1,3.1A3.1,3.1,0,0,1,98,105Z"/><polygon class="cls-1" points="208.06 50.4 208.28 54.17 211.5 56.13 207.99 57.49 207.12 61.17 204.73 58.25 200.97 58.56 203.01 55.38 201.55 51.9 205.2 52.86 208.06 50.4"/><polygon class="cls-1" points="50.58 98.42 50.8 102.19 54.02 104.15 50.51 105.52 49.64 109.19 47.25 106.27 43.49 106.58 45.53 103.41 44.07 99.93 47.72 100.89 50.58 98.42"/><polygon class="cls-1" points="183.92 96.25 186.44 99.06 190.19 98.58 188.29 101.84 189.91 105.25 186.22 104.46 183.47 107.05 183.09 103.3 179.77 101.49 183.22 99.96 183.92 96.25"/><path class="cls-1" d="M75.48,121.74a2.16,2.16,0,1,1,2.16,2.15A2.16,2.16,0,0,1,75.48,121.74Z"/><polygon class="cls-1" points="117.19 117.08 119.72 119.89 123.46 119.41 121.57 122.67 123.18 126.08 119.49 125.29 116.75 127.89 116.36 124.13 113.05 122.32 116.5 120.79 117.19 117.08"/><path d="M238.54,84c-.41.18-1.36.62-1.46,1.57a1.81,1.81,0,0,0,.93,1.74,2.13,2.13,0,0,0,1.54.09,2.19,2.19,0,0,0,1.42-.72,2.12,2.12,0,0,0-.22-2.7C240,83.35,238.94,83.83,238.54,84Z"/><path d="M241.27,58.1a3.13,3.13,0,0,0-2.5-.38,1.89,1.89,0,0,0-1.32.86,4.07,4.07,0,0,0-.13,1.46c0,.55,0,.82,0,1.33.07,1.09.71,14.86.76,18.69a2.11,2.11,0,0,0,.67,1.77,1.32,1.32,0,0,0,.76.21,1.59,1.59,0,0,0,1.08-.39,1.7,1.7,0,0,0,.43-1.26c0-3.76.3-7.58.6-11.27.19-2.35.39-4.78.51-7.18v-.13C242.23,60.43,242.3,58.87,241.27,58.1Z"/><path d="M185,67.73a1.41,1.41,0,0,0,.49.09,2,2,0,0,0,1.25-.48,2.74,2.74,0,0,0,.64-2c.07-1.28.14-2.49-.69-3a2.16,2.16,0,0,0-2.52.6,2.86,2.86,0,0,0-.41,2.31C183.85,66,184,67.36,185,67.73Z"/><path d="M231.59,83c-1.72-1.5-3.5-3.06-4.14-5.75a4.57,4.57,0,0,1,.15-3c.76-1.68,2.86-3,4-2.49a3.5,3.5,0,0,1,1.85,1.67.56.56,0,0,0,.7.27.62.62,0,0,0,.4-.72,5,5,0,0,0-2.16-3.24c-2-1.1-5.09-.43-7,1.54a7.78,7.78,0,0,0-1.86,5.44c0,.14,0,.38.05.68a7.56,7.56,0,0,0,1.89,4c.12.14.26.28.39.42a10.92,10.92,0,0,1-4.17,3.6c-.48.22-.72.26-.93.17-.77-.33-.62-2.33-.38-5.64,0-.53.08-1.09.12-1.69.43-6.21.26-8-.79-8.61a2.79,2.79,0,0,0-2.23,0c-1.48.43-2.84,1.72-5.71,7.2,0-.15,0-.3,0-.46s0-.43,0-.68c.16-3.09.23-5.88-.69-6.09a3.87,3.87,0,0,0-.93,0,3.09,3.09,0,0,0-1.34.28c-.64.41-.58,1.42-.56,1.76.07,1.38,0,2.8,0,4.16,0,.18,0,.36,0,.53a6.11,6.11,0,0,1-.92.43,6.55,6.55,0,0,1-1.44.36c-.59-4.14-2.74-7.3-5.26-7.69a5.1,5.1,0,0,0-3.87.86l-.82,1a7.28,7.28,0,0,0-4.72,5.24,11.22,11.22,0,0,0-.09,5.72,18.15,18.15,0,0,1-1.93,2.08c-1.47,1.34-1.93,1.31-2,1.27-.31-.12-.61-.66-.56-3.76,0-1.79.17-3.05.32-4.5,0-.49.1-1,.15-1.55.49-5.24.11-5.9-.39-6.19a2.31,2.31,0,0,0-2.54.64,2.77,2.77,0,0,0-.65,1.67c-.23,3.06-.3,5.74-.32,7.5a16.63,16.63,0,0,1-2.74,3.15c-1,.86-2.8,2.48-3.81,2-.78-.39-.77-2-.77-2.65,0-4.66.06-8.3.12-11.11l1.27-.07c3.31-.16,4.31-.21,4.76-1.07a1.79,1.79,0,0,0-.28-2.09c-.5-.39-1.2-.14-1.95.11l-.31.1a27.13,27.13,0,0,1-3.44.83c.13-4.61.27-6.22.27-6.25.07-.69.14-2.35-.59-2.64-.25-.1-.63,0-1.48.23a3.1,3.1,0,0,0-.93.34,2.37,2.37,0,0,0-.69,2c0,1.2-.05,4.05-.12,6.85-.78.08-1.41.12-1.79.12s-1,0-1.22.45a.73.73,0,0,0,0,.62c.2.51,1.11.66,2.48.66h.47c0,.63-.25,6.07-.27,7.69,0,.75,0,1.84,0,3.19l-1.28,1c-2.36,1.75-2.94,1.84-3.19,1.72-.62-.31-.51-1.77-.42-3.09.49-7.25.72-11.36-.47-11.8a3.34,3.34,0,0,0-1.4.08,2.22,2.22,0,0,0-1.09.46,1.39,1.39,0,0,0-.39.76,5.89,5.89,0,0,0-3.34-1.37h-.37c-2.77,0-4.62,2.09-5.25,2.8a12.2,12.2,0,0,0-2.45,9.91c0,.13,0,.24.08.36-2.73,3-3.83,3.36-4.26,3.12-.09,0-.3-.17-.46-1.84a21.71,21.71,0,0,1,0-4.34,32.41,32.41,0,0,0,5.32-11.09c1.41-5.51.37-8-.37-9a3.47,3.47,0,0,0-1.78-1.35c-1.63-.46-3.24.71-3.77,1.1-1.52,1.1-3,3.6-3,20.47,0,.66,0,1.44,0,2.24a21.08,21.08,0,0,1-2.15,2.37c-.27.25-.84.78-1.2.64s-.47-1.4-.47-1.79c0-1.13.08-2.87.16-4.72a68.63,68.63,0,0,0,.12-8.16,1.38,1.38,0,0,0-.45-.93,1.56,1.56,0,0,0-1.26-.2,2.4,2.4,0,0,0-1.64,1.08,2.08,2.08,0,0,0-.22,1.35c.05.55,0,3.1,0,8.19,0,.57,0,1,0,1.3a12.43,12.43,0,0,1-2.44,2.57c-.63.49-2.55,2-3.35,1.45-.43-.28-.4-1.41-.3-3.7.15-3.51.26-7.35.4-9.76,0-.72.12-1.92-.55-2.29s-1.4.11-1.83.48a3,3,0,0,0-.93,1.74,46.14,46.14,0,0,0-.53,6.83c0,.43,0,.86,0,1.28a16.19,16.19,0,0,1-2.54,2.86c-1,.86-2.8,2.47-3.8,2-.78-.39-.78-2-.78-2.65,0-4.66.06-8.3.12-11.11l1.27-.07c3.31-.16,4.31-.21,4.76-1.07a1.79,1.79,0,0,0-.28-2.09c-.49-.39-1.2-.14-1.95.11l-.31.1a27.13,27.13,0,0,1-3.44.83c.13-4.61.27-6.22.27-6.25.07-.69.14-2.35-.59-2.64-.25-.1-.63,0-1.47.23a3.08,3.08,0,0,0-.94.34c-.71.49-.69,1.6-.69,2,0,1.2-.05,4.05-.12,6.85-.78.08-1.41.12-1.79.12s-1,0-1.22.45a.77.77,0,0,0,0,.62c.2.51,1.11.66,2.48.66h.47c0,1-.14,4.42-.18,5.19,0,1.25-.17,3.52-.06,5.69l-1.28,1c-2.36,1.75-2.94,1.84-3.19,1.72-.61-.31-.51-1.77-.42-3.09.49-7.25.72-11.36-.47-11.8a3.34,3.34,0,0,0-1.4.08,2.27,2.27,0,0,0-1.09.46,1.46,1.46,0,0,0-.39.76,5.89,5.89,0,0,0-3.34-1.37c-3-.2-5,2-5.61,2.79a12.16,12.16,0,0,0-2.46,9.91,5.8,5.8,0,0,0,.13.6c-2.12,2.51-2.88,2.75-3.14,2.61s-.2-1,0-3.7l0-.38c.36-4.6.42-5.82-.35-6.24a1.19,1.19,0,0,0-1,0,8.15,8.15,0,0,1-1.48.25,8.87,8.87,0,0,1-2.3-.13c.77-1,2.21-3.3,1.69-4.81a1.76,1.76,0,0,0-.24-.45c-.8-1-2.88-1-4.14.05a3.35,3.35,0,0,0-1,1.45,4.86,4.86,0,0,0,.5,4.4,4.73,4.73,0,0,0,.66.75c-1.29,1.66-2.55,3.3-3.74,4.88.15-2.81.33-6.15.54-10,0-.4.09-1.6-.54-1.92a1.24,1.24,0,0,0-.66,0,2.52,2.52,0,0,0-1.68.66,1.55,1.55,0,0,0-.34,1,6,6,0,0,0-3.62-1.63c-3-.21-5,2.09-5.61,2.84a12.59,12.59,0,0,0-2.45,10.14,2.8,2.8,0,0,0,.06.28,9.9,9.9,0,0,1-3.3,2.53c-.48.22-.73.26-.94.17-.76-.33-.62-2.33-.37-5.63,0-.53.08-1.1.12-1.7.42-6.21.26-8-.8-8.61a2.79,2.79,0,0,0-2.23,0c-1.47.43-2.83,1.72-5.71,7.2,0-.25,0-.65.05-1.14.18-5.54-.42-6-.7-6.09a3.87,3.87,0,0,0-.93,0,3,3,0,0,0-1.33.28c-.64.41-.59,1.42-.57,1.76.08,1.38,0,2.79,0,4.16,0,.16,0,.33,0,.49s-.22.14-.34.2a7.82,7.82,0,0,1-2,.6,12.48,12.48,0,0,0-1.92-5.25,5.46,5.46,0,0,0-3.36-2.44,4.78,4.78,0,0,0-3.91.89,3.71,3.71,0,0,0-.8,1,7.32,7.32,0,0,0-4.73,5.27,11.24,11.24,0,0,0-.42,3,12.55,12.55,0,0,1-7.59,4.92c-3.89.74-6.4-.26-7.81-1.24-5.34-3.67-4.61-12.8-2-18a15.17,15.17,0,0,1,6.54-6.48c1-.5,3.51-1.52,5.22-.43,1.54,1,2.64,3.68,1.68,5.29a1.58,1.58,0,0,0,.57,2.2A1.52,1.52,0,0,0,33,65.26c1.31-2.08,1.65-4,1-5.63a5.51,5.51,0,0,0-1.36-2,8.29,8.29,0,0,0-5.47-2.16,12,12,0,0,0-6.71,1.69,19.46,19.46,0,0,0-9.66,17.11c.2,5.85,2.3,10.24,5.89,12.37a10.78,10.78,0,0,0,5.59,1.45A15.47,15.47,0,0,0,24.22,88c4.88-.64,8.26-3.9,10.24-6.54a9,9,0,0,0,2,4.47,6.07,6.07,0,0,0,4.64,2,7.67,7.67,0,0,0,4.22-1.29A10.15,10.15,0,0,0,49.48,79a8.25,8.25,0,0,0,2.26-.81c0,.09,0,.17,0,.25,0,1.46.05,2.94.09,4.37,0,1.25.08,2.55.1,3.82a1.32,1.32,0,0,0,.44,1.13,1,1,0,0,0,.6.17,3.26,3.26,0,0,0,1.35-.4c1.23-.67,1.16-2.29,1-5.22,0-.66-.05-1.4-.07-2.19,1-1.59,2.11-3.17,3.24-4.69.8-1.09,1.55-2.06,1.87-2.06s.21,1.23.07,2.78-.32,3.45-.35,6c0,2.87.18,4.59,1.4,5.42a3,3,0,0,0,1.72.46h.12c2.21,0,4.26-1.68,5.74-3.31a5.59,5.59,0,0,0,2.32,2.85,5,5,0,0,0,2.43.57A6.37,6.37,0,0,0,76,87.69a7.67,7.67,0,0,0,3.5-3.17l.27-.42-.06,1.62c-3,4.07-5.45,7.61-7.06,10.18-.82,1.31-2.52,4-1.65,6.7a5.86,5.86,0,0,0,1.68,2.46,4.56,4.56,0,0,0,3.18,1.17,5.81,5.81,0,0,0,3.3-1,5.22,5.22,0,0,0,1.38-1.5A9.94,9.94,0,0,0,82,98.61a50.12,50.12,0,0,0,.33-5.45c0-.82.11-3.66.38-8.8,1.6-2.35,3.25-4.68,4.91-7a5.68,5.68,0,0,0,3.86.45c-.18,1.89-.34,3.86-.5,5.88-.1,1.23-.22,2.77.67,3.41a3.5,3.5,0,0,0,1.43.44s1.1-.08,1.33-.12c1.24-.21,3.24-2.56,3.33-2.66l.19-.24a5.44,5.44,0,0,0,2.25,2.65,5.26,5.26,0,0,0,2.42.55,6.37,6.37,0,0,0,2.16-.37,7.54,7.54,0,0,0,3.49-3.12c.07-.09.13-.19.19-.28.06,1.94.12,3.13,1,3.66a1.87,1.87,0,0,0,1,.24,4.74,4.74,0,0,0,1.48-.31c1.51-.48,2.36-1.37,4.06-3.16L117,83.28a12.11,12.11,0,0,0,.47,2.37,2.86,2.86,0,0,0,1.11,1.54,2.56,2.56,0,0,0,1.38.37,5.47,5.47,0,0,0,1.78-.36,9.33,9.33,0,0,0,4.05-3c.62-.69,1.21-1.42,1.79-2.17,0,1.92.09,3.8.73,4.63a2.67,2.67,0,0,0,.45.45s.09,0,.09,0a5.62,5.62,0,0,0,1.91.34,4.61,4.61,0,0,0,.53,0c2.18-.23,3.6-1.77,5.1-3.41.28-.31.55-.63.81-1,0,2.86.21,3.7.91,4.14a2.14,2.14,0,0,0,1.15.29,4.29,4.29,0,0,0,.68-.06,4.82,4.82,0,0,0,2.83-1.65c.61-.61,1.21-1.27,1.79-2,.25,1.64.8,3.1,2,3.62a2.74,2.74,0,0,0,1,.2h.09c2.27,0,4.23-2,5.42-3.66a5.74,5.74,0,0,0,2.45,3.13,5.26,5.26,0,0,0,2.42.55,6.41,6.41,0,0,0,2.16-.37c1.63-.59,2.49-1.76,3.49-3.12.07-.09.13-.19.19-.28.06,1.94.12,3.13,1,3.66a1.87,1.87,0,0,0,.95.24,4.74,4.74,0,0,0,1.48-.31c1.51-.48,2.36-1.37,4.06-3.15l1.06-1.12a11.42,11.42,0,0,0,.47,2.37,2.77,2.77,0,0,0,1.1,1.54,2.62,2.62,0,0,0,1.39.37,5.53,5.53,0,0,0,1.78-.36,9.45,9.45,0,0,0,4.05-3c.72-.81,1.41-1.66,2.08-2.54q0,.73,0,1.35c0,2.55.05,3.72,1,4.26a2.62,2.62,0,0,0,1.33.3,5.32,5.32,0,0,0,1.08-.12,5.23,5.23,0,0,0,2.19-1.08,15.84,15.84,0,0,0,2.75-2.89A8.17,8.17,0,0,0,193,85.87a6,6,0,0,0,4.62,2,7.69,7.69,0,0,0,4.2-1.27,10.16,10.16,0,0,0,4.14-7.67,8.06,8.06,0,0,0,2.28-.81v.28c0,1.46.05,2.94.09,4.37,0,1.25.08,2.55.09,3.82a1.36,1.36,0,0,0,.44,1.13,1.08,1.08,0,0,0,.61.17,3.32,3.32,0,0,0,1.35-.4c1.22-.68,1.16-2.29,1-5.22,0-.66-.06-1.4-.08-2.19,1-1.59,2.12-3.17,3.24-4.69.81-1.09,1.56-2.06,1.87-2.06s.22,1.23.07,2.78-.31,3.45-.34,6c0,2.87.18,4.59,1.39,5.42a3,3,0,0,0,1.73.46h.12c3.07,0,5.82-3.21,7.19-5.09l1.2,1.09a20.1,20.1,0,0,1,3.71,3.94,6.44,6.44,0,0,1-.79,7.15,6.2,6.2,0,0,1-3.85,2,5.64,5.64,0,0,1-4.34-.79,4.8,4.8,0,0,1-1.33-1.53,3.86,3.86,0,0,0,1.62-.56,3.58,3.58,0,0,0,1.69-3.87,2.41,2.41,0,0,0-1.54-1.54,2.54,2.54,0,0,0-2.11.55c-1.66,1.2-1.58,3.68-1.53,4.32a3.92,3.92,0,0,1-1.42-.1c-.22-.06-.43-.14-.62-.2-.43-.17-.8-.3-1.07-.09a.55.55,0,0,0-.19.35c0,.69,1.68,1.14,1.87,1.19a5,5,0,0,0,1.73.13,5.86,5.86,0,0,0,.41.74A8,8,0,0,0,222,97.35a8.15,8.15,0,0,0,4.84,1.59A8.77,8.77,0,0,0,232.3,97a9.19,9.19,0,0,0,3.25-5.19,8.41,8.41,0,0,0,.08-3C235.14,86.09,233.34,84.51,231.59,83ZM41.39,84.42c-1.37.14-2.53-.67-3.34-2.33a7.62,7.62,0,0,1,.79-8.31,5,5,0,0,0,1.38,3.66c1.31,1.32,3.53,2,6.3,1.89C45.86,81.6,43.64,84.2,41.39,84.42Zm.79-8.48c-.58-.6-1.51-1.74-1.16-2.73a2.28,2.28,0,0,1,1.67-1.39,3,3,0,0,1,.72-.09A2.32,2.32,0,0,1,45,72.3a6.88,6.88,0,0,1,1.8,5.07A5.18,5.18,0,0,1,42.18,75.94Zm37.66,5.9a6,6,0,0,1-3.09,2.62,3.25,3.25,0,0,1-2.09.12c-2-.67-2.43-3.69-2.53-4.61-.35-3.15,1.08-8,4.1-8.33a5,5,0,0,1,3.9,1.76C80.08,75.29,80,78.29,79.84,81.84ZM197.46,73.2a2.32,2.32,0,0,1,1.69-1.41,3,3,0,0,1,.72-.09,2.4,2.4,0,0,1,1.61.57,7,7,0,0,1,1.81,5.13A5.19,5.19,0,0,1,198.63,76C198,75.36,197.1,74.21,197.46,73.2ZM203,79.3c-.66,2.29-2.9,4.93-5.17,5.15-1.38.14-2.56-.67-3.37-2.35a7.62,7.62,0,0,1,.85-8.4,5,5,0,0,0,1.37,3.72C198,78.73,200.26,79.41,203,79.3Zm-39.12-.64c-.06,1-.11,2.11-.14,3.17a5.81,5.81,0,0,1-2.93,2.35,3.28,3.28,0,0,1-2.1.12c-2-.65-2.43-3.62-2.53-4.52-.34-3.09,1.08-7.81,4.11-8.17A4.9,4.9,0,0,1,164,73.16,47.93,47.93,0,0,1,163.91,78.66Zm-16.15-4.79c.08-11.7,1.58-13,2-13.05a1.14,1.14,0,0,1,.34,0,1.53,1.53,0,0,1,.7.16,1.91,1.91,0,0,1,.88,1.06c1.54,3.73-1.9,11.25-1.93,11.33a38.56,38.56,0,0,1-2,3.8Zm-39.2,4.79c-.06,1-.11,2.11-.14,3.17a5.73,5.73,0,0,1-2.93,2.35,3.18,3.18,0,0,1-2.09.12c-2-.65-2.44-3.62-2.54-4.52-.34-3.09,1.08-7.81,4.11-8.17a4.87,4.87,0,0,1,3.72,1.55A47.93,47.93,0,0,1,108.56,78.66ZM88.31,70.82a.88.88,0,0,1,.49.13,1.22,1.22,0,0,1,.37.84A4.44,4.44,0,0,1,88.08,75a3.24,3.24,0,0,1-1.14-1.61,2.1,2.1,0,0,1,.11-1.89A1.68,1.68,0,0,1,88.31,70.82ZM79.39,93.43a49.66,49.66,0,0,1-.13,5c-.14,1.79-.29,2.68-.91,3.53a2.82,2.82,0,0,1-2.13,1.43,3,3,0,0,1-2.12-1.36c-1.47-2.2,1.32-6.79,5.12-12.57l.35-.52C79.51,90.45,79.45,91.94,79.39,93.43Zm143.34-3.07a1.12,1.12,0,0,1,.89.41c.36.52-.07,1.3-.2,1.53a3,3,0,0,1-2.36,1.17,2.74,2.74,0,0,1,.25-2.08A1.74,1.74,0,0,1,222.73,90.36Z"/></g></g></svg>