<svg xmlns="http://www.w3.org/2000/svg" viewBox="0 0 296.75 48.28"><defs><style>.cls-1{fill:#231f20;}</style></defs><g id="Layer_2" data-name="Layer 2"><g id="Layer_1-2" data-name="Layer 1"><path class="cls-1" d="M24.74,26.81a36,36,0,0,0-3.42-1.29c-4.16-1.45-10.45-3.64-12.71-7.59a7.06,7.06,0,0,1-.91-3.6,5.92,5.92,0,0,1,.61-2.68,6.54,6.54,0,0,1,4.22-3.3,8.1,8.1,0,0,1,1-.24l.21,0a10.81,10.81,0,0,1,3.59,0,11.62,11.62,0,0,1,1.38.27,14.77,14.77,0,0,1,2.94,1.11c4,2,4.43,5.44,4.39,8.25a1,1,0,0,1-1,1H23.83v1.22l0,.25h5.22l1.13,0V18.71l-.8,0c.12-3.39-.84-9.16-8.13-11.75l-.8-.27-.12,0c-.3-.08-.59-.16-.87-.22a16.43,16.43,0,0,0-8.36,0,7.63,7.63,0,0,0-.73.23l-.24.09a8.94,8.94,0,0,0-5.61,5.45C2.29,19.8,7.19,23.05,11.07,24.84a40.11,40.11,0,0,0,5.43,1.9c2.91.88,5.66,1.71,8,3.61.95.76,4,3.53,3.67,7.17-.42,4.11-3.7,7.29-8.37,8.11a14.79,14.79,0,0,1-4.11.14c-.39,0-.72-.09-1-.15-4.35-.73-9.77-2.87-11.39-5.83a3.42,3.42,0,0,1-.18-3.11c1.29-3.07,11-3.32,11.11-3.32h1.67V31.58H0v1.77H4.82a4.2,4.2,0,0,0-2.31,2c-1.27,2.75-.34,5.73,2.61,8.4a17.11,17.11,0,0,0,6.08,3.45l.79.25.24.07a19.93,19.93,0,0,0,3.41.62,17.35,17.35,0,0,0,2.1.12,19.45,19.45,0,0,0,5.34-.74,9.18,9.18,0,0,0,1-.32c4.77-1.66,7.87-5.07,8.27-9.1A9.79,9.79,0,0,0,29,29.43,20.84,20.84,0,0,0,24.74,26.81Z"/><path class="cls-1" d="M88.77,42.41a2.89,2.89,0,0,1-1.87,2.2,2.79,2.79,0,0,1-2.17-.08,1.7,1.7,0,0,1-.59-1.19,5.06,5.06,0,0,1,0-1v-15a17.76,17.76,0,0,0-.95-6.53c-.12-.28-.25-.57-.4-.88-1.91-4-5-5.87-9.11-5.37-3.84.44-8.15,3.3-11.08,7.32-.07-.27-.15-.51-.23-.73a12.2,12.2,0,0,0-.54-1.45c-1.77-4.1-4.68-6-8.67-5.5-3.21.38-6.94,3-10.08,7.05V14l-1.46,1.8a4.34,4.34,0,0,1-2.19,1.36,7.9,7.9,0,0,1-1,.17l-1,.14.61,2h.61c1,0,1.21,1,1.21,1.87V43.46a.86.86,0,0,1-.81.9H35.44v3h12v-3H43.81a.74.74,0,0,1-.53-.23,1,1,0,0,1-.26-.65V26.57c2.29-4.28,6.79-8.94,10.41-9.38,2.81-.33,4.59,1,5.78,4.26a18,18,0,0,1,1,6.15V42.51a.76.76,0,0,0,0,.17A5.12,5.12,0,0,0,61.42,46a.92.92,0,0,0,.15.17,4.67,4.67,0,0,0,2.86,1,3.67,3.67,0,0,0,1-.15,4,4,0,0,0,2.29-2.09,7.62,7.62,0,0,0,.8-2.26l.14-.8L67,41.29l-.17.87a2.87,2.87,0,0,1-1.27,2.11.44.44,0,0,1-.15.08,1.6,1.6,0,0,1-1.59-.07.76.76,0,0,1-.13-.18l0-.06a2.35,2.35,0,0,1-.28-.95c0-.2,0-.49,0-.8V26.11c2.31-4.32,6.74-7.9,10.33-8.33,2.83-.33,4.22.49,5.53,3.26a12.73,12.73,0,0,1,1,5.43V42.78a4.69,4.69,0,0,0,1.59,3.46,1.55,1.55,0,0,0,.21.19,7.23,7.23,0,0,0,3.64,1,5.9,5.9,0,0,0,1.3-.15,5.66,5.66,0,0,0,3.95-4.35l.2-.82L89,41.57Z"/><path class="cls-1" d="M117.4,16.69c-2.52-2.13-6.37-2.92-11.13-2.3-6.75.9-8.75,5.33-9.2,6.67-.63,1.85-.47,3.68.4,4.54L99,27.15l-1.17-1.86a5.16,5.16,0,0,1,.35-4.11c.88-1.84,3-4.17,8.36-4.82A11.59,11.59,0,0,1,115,18.68a7.91,7.91,0,0,1,3,5.46,5.3,5.3,0,0,1-.47,1.67c-.7,1.31-2.38,3-8.9,2.51-5.45-.42-12.08,1.34-14.63,6.21a8.53,8.53,0,0,0,3.32,11.33,12.17,12.17,0,0,0,5.92,1.49c.28,0,.55,0,.83,0a14.24,14.24,0,0,0,8.78-3.66c3-2.57,4.6-5.66,4.43-8.48a6.72,6.72,0,0,0-3.21-5.25l-.15-.1-.82.6.38.18a4,4,0,0,1,2.6,3.19c.32,2.54-1.73,5.51-3.22,6.72-4.73,3.86-10,4.25-12.75,2.65a5.79,5.79,0,0,1-2.9-6.55c1.14-3.58,5.43-7.17,10.63-7,6.79.25,9.18-1.16,10.19-3V42.38A3.74,3.74,0,0,0,119,45a3.71,3.71,0,0,0,1.56.66l.29,0V24.89C120.75,21.29,119.58,18.53,117.4,16.69Z"/><path class="cls-1" d="M146.25,15.39A9.28,9.28,0,0,0,137.9,15c-2.13.89-3.57,2.06-5.3,5.79a3.19,3.19,0,0,0-3.3-2.33h-.17a6.15,6.15,0,0,0-1.17.16l-.22.06.44,2.14h.2c1,0,1.21,1,1.21,1.89l0,20.78a.86.86,0,0,1-.81.9h-3.65v3h12v-3h-3.66a.86.86,0,0,1-.8-.9V24.84c1-4.48,3.31-6.31,5.1-7a7,7,0,0,1,.69-.24c1.36,1.11,7,5.53,9.45,4.39a2.38,2.38,0,0,0,1.14-2.38h0C149.13,17.89,148.17,16.49,146.25,15.39ZM144,18.23a3.83,3.83,0,0,1,1.76,2,.39.39,0,0,1,0,.11c-.35.17-2.55-.83-6-3A7.41,7.41,0,0,1,144,18.23Z"/><path class="cls-1" d="M158.65,13.4a4.43,4.43,0,0,0,.3-1.9v-.23h-3.11l0,.28a2.79,2.79,0,0,1-.28,1.57c-.53,1-1.39,1-2.58,1.16l-.18,0c-.34,0-1,.08-1,.08l-.77,0v2.32l3.87,0V41.88l0,1A5,5,0,0,0,156.1,46a3.3,3.3,0,0,0,.62.57,4.14,4.14,0,0,0,2.52.8h.34A4.21,4.21,0,0,0,162.41,46a5.51,5.51,0,0,0,1.19-3.93l0-.83h-2.05l0,.87a3.15,3.15,0,0,1-.53,2,1.74,1.74,0,0,1-1.25.61,1.62,1.62,0,0,1-1.2-.36,4.72,4.72,0,0,1-.53-2.48V16.78h6.82V14.2H158A2.32,2.32,0,0,0,158.65,13.4Z"/><path class="cls-1" d="M213.76,45.93c-.77,0-1.32-1.17-1.42-1.64L205.2,8.35l-.3-1.48-6-.06-.06,1.48.85.05a1.21,1.21,0,0,1,.84.43,2,2,0,0,1,.19,1.52l-9.81,30.17L177.7,8.2l-.55-1.34-4.34,0V8.32l.66,0a1.26,1.26,0,0,1,.74.35,2.62,2.62,0,0,1,.16,1.48l-5.29,34.07c-.1.49-.73,1.68-1.68,1.68h-1v1.47h7.51V45.92h-.74a1.24,1.24,0,0,1-.95-.47A2.2,2.2,0,0,1,171.7,44l4.48-28.86,12.39,30.3a1.43,1.43,0,0,0,1.33.89h3.38l-.55-1.4a2.4,2.4,0,0,1-.06-1.63l9.54-29.34,6,30a2,2,0,0,1-.2,1.51,1.32,1.32,0,0,1-1,.47h-.74v1.46h8.28V45.93h-.78Z"/><path class="cls-1" d="M221.89,12.91a2.43,2.43,0,1,0-2.42-2.43A2.42,2.42,0,0,0,221.89,12.91Z"/><path class="cls-1" d="M223.82,43.68V14.13l-1.46,1.72a4.3,4.3,0,0,1-2.18,1.28c-.55.11-.89.16-.95.17l-1,.12.64,2h.6c1,0,1.21.94,1.21,1.73V43.68a.81.81,0,0,1-.8.82h-3.66v2.85h12.05V44.5h-3.65A.82.82,0,0,1,223.82,43.68Z"/><path class="cls-1" d="M263.51,42.57a2.91,2.91,0,0,1-4,2.1,1.73,1.73,0,0,1-.6-1.17,5,5,0,0,1-.05-1V27a17.08,17.08,0,0,0-1.17-6.5c-.12-.31-.26-.61-.39-.89-1.91-4-5.06-5.8-9.11-5.32-3.21.37-6.94,3-10.09,7l0-7.19-1.47,1.82a4.4,4.4,0,0,1-2.18,1.33c-.59.13-.94.18-1,.18l-1,.13.62,2h.61c1,0,1.21,1,1.21,1.85l0,22.1a.85.85,0,0,1-.81.88h-3.65v2.94h12V44.35h-3.66a.75.75,0,0,1-.55-.24.92.92,0,0,1-.25-.64v-17c2.28-4.23,6.77-8.84,10.4-9.27,2.62-.3,4.18.72,5.57,3.67a12.33,12.33,0,0,1,1.09,5.36V43.06a4.66,4.66,0,0,0,1.59,3.44,1.4,1.4,0,0,0,.21.17,6.45,6.45,0,0,0,3.39.89,6.16,6.16,0,0,0,1.31-.16,5.64,5.64,0,0,0,3.94-4.3l.2-.8-2.08-.57Z"/><path class="cls-1" d="M295.84,1.38l-.49-.09L295,1.21a3.6,3.6,0,0,1-1.59-1L293.22,0H291.7l.07,20a13.16,13.16,0,0,0-10.42-5.41c-7.75,0-14.05,7.34-14.05,16.38s6.3,16.37,14.05,16.37a13.19,13.19,0,0,0,10.51-5.51l0,5.48.27,0a2.93,2.93,0,0,0,2.17-1.65,7.4,7.4,0,0,0,.61-3.83c0-.8-.06-1.76-.1-2.67,0-.55-.06-1.09-.07-1.55l-.09-32.32c0-.71.32-2.48,1.08-2.48h.63l.36-1.25Zm-4,33.82c-1.44,5.19-5.74,8.67-10.7,8.67-5.6,0-9.52-5.54-9.52-13.47s4.54-14.64,10.11-14.64c4.79,0,8.58,5.61,10.08,10.84Z"/></g></g></svg>